<?xml version="1.0" encoding="UTF-8"?>
<svg id="_레이어_1" xmlns="http://www.w3.org/2000/svg" viewBox="0 0 134.47 87.83">
  <defs>
    <style>
      .cls-1{fill:#f4a051;}
      .cls-2{fill:#f7bb82;}
      .cls-3{fill:#ed7100;}
    </style>
  </defs>
  <path class="cls-2" d="M59.07,29.06c-.81-7.37,6.92-13.28,17.26-13.2,10.34,.08,19.38,6.12,20.19,13.48,.82,7.37-6.9,13.28-17.25,13.2-10.34-.08-19.39-6.11-20.2-13.48m39.37,2.29c-.94-9.14-11.34-16.62-23.24-16.73-11.91-.1-20.79,7.23-19.86,16.37,.93,9.14,11.34,16.63,23.24,16.73,11.9,.1,20.8-7.23,19.86-16.37"/>
  <path class="cls-1" d="M80.48,47.9c-5.86,6.13-15.27,6.63-21.01,1.14-5.75-5.5-5.65-14.92,.21-21.05,5.86-6.12,15.27-6.63,21.02-1.13,5.74,5.5,5.64,14.92-.22,21.04m-21.72-20.1c-6.81,7.12-6.92,18.07-.25,24.46,6.68,6.39,17.62,5.8,24.43-1.32,6.82-7.12,6.93-18.07,.25-24.46-6.67-6.39-17.61-5.8-24.43,1.32"/>
  <path class="cls-3" d="M59.38,4.88c12.2-4.57,24.25,.05,26.93,10.33,2.69,10.27-5.03,22.3-17.22,26.87-12.2,4.57-24.25-.06-26.93-10.32-2.68-10.27,5.03-22.3,17.22-26.87m-11.32,3.93c-12.65,10.02-15.87,24.53-7.2,32.41,8.68,7.88,25.97,6.16,38.62-3.86,12.65-10.01,15.88-24.53,7.19-32.41-8.68-7.89-25.97-6.16-38.61,3.86"/>
  <text x="50%" y="80" text-anchor="middle" font-family="-apple-system, BlinkMacSystemFont, 'Segoe UI', Roboto, 'Inter', sans-serif" font-weight="800" font-size="17" fill="#231815" letter-spacing="-0.5px">Hanwha <tspan fill="#ed7100">Life</tspan></text>
</svg>